<svg width="21" height="21" viewBox="0 0 21 21" fill="none" xmlns="http://www.w3.org/2000/svg">
<path d="M10.4846 0.442955C10.3965 0.445996 10.3115 0.476707 10.2418 0.530729L0.581616 8.06875C0.39858 8.21146 0.365895 8.47553 0.508606 8.65857C0.651317 8.8416 0.915389 8.87429 1.09842 8.73158L1.68004 8.27793V19.3204C1.68007 19.5524 1.8681 19.7404 2.10005 19.7404H7.90963C7.95499 19.7479 8.00127 19.7479 8.04663 19.7404H12.9497C12.9951 19.7479 13.0414 19.7479 13.0867 19.7404H18.9004C19.1324 19.7404 19.3204 19.5524 19.3204 19.3204V8.27793L19.902 8.73158C20.0204 8.82391 20.1791 8.84606 20.3183 8.78968C20.4574 8.7333 20.5559 8.60696 20.5767 8.45825C20.5974 8.30954 20.5373 8.16106 20.4189 8.06875L17.2204 5.5733V2.52003H14.7003V3.60615L10.7586 0.530729C10.6805 0.47013 10.5835 0.439049 10.4846 0.442955ZM10.5002 1.39536L18.4804 7.62249V18.9004H13.4403V10.9202H7.56017V18.9004H2.52006V7.62249L10.5002 1.39536ZM15.5403 3.36005H16.3804V4.91786L15.5403 4.26159V3.36005ZM8.40019 11.7602H12.6003V18.9004H8.40019V11.7602Z" fill="white"/>
</svg>
