<svg width="539" height="527" viewBox="0 0 539 527" fill="none" xmlns="http://www.w3.org/2000/svg">
<g opacity="0.15" filter="url(#filter0_d_30_86)">
<path fill-rule="evenodd" clip-rule="evenodd" d="M273.621 15.8192C374.283 19.2803 456.827 90.9197 487.869 188.332C518.822 285.466 497.874 399.448 413.537 454.889C338.47 504.235 252.791 442.821 179.183 391.252C95.9034 332.907 -15.4669 271.504 9.59124 171.887C37.4773 61.0283 161.133 11.9515 273.621 15.8192Z" stroke="#60CDB2" stroke-width="3"/>
<path fill-rule="evenodd" clip-rule="evenodd" d="M228.046 3.62382C335.495 -5.37395 460.709 21.7457 494.122 117.065C527.581 212.512 440.19 297.998 351.175 354.877C270.917 406.161 164.042 433.083 87.9092 376.629C18.1974 324.935 48.1217 230.196 77.518 151.951C104.168 81.016 147.516 10.3674 228.046 3.62382Z" stroke="#1E670B" stroke-width="3"/>
<path fill-rule="evenodd" clip-rule="evenodd" d="M286.121 59.6093C353.557 66.5451 405.615 109.601 449.251 159.573C494.874 211.822 547.27 272.184 529.421 338.238C511.875 403.169 432.295 422.342 370.073 452.582C305.343 484.04 241.53 533.369 172.619 511.643C95.5584 487.347 41.361 418.604 21.9498 342.823C2.12753 265.438 17.1918 180.133 72.5118 120.826C124.729 64.8444 208.401 51.6159 286.121 59.6093Z" stroke="#A6C3AB" stroke-width="3"/>
</g>
<defs>
<filter id="filter0_d_30_86" x="0.49826" y="0.5" width="538.002" height="526" filterUnits="userSpaceOnUse" color-interpolation-filters="sRGB">
<feFlood flood-opacity="0" result="BackgroundImageFix"/>
<feColorMatrix in="SourceAlpha" type="matrix" values="0 0 0 0 0 0 0 0 0 0 0 0 0 0 0 0 0 0 127 0" result="hardAlpha"/>
<feOffset dy="4"/>
<feGaussianBlur stdDeviation="2"/>
<feComposite in2="hardAlpha" operator="out"/>
<feColorMatrix type="matrix" values="0 0 0 0 0 0 0 0 0 0 0 0 0 0 0 0 0 0 0.25 0"/>
<feBlend mode="normal" in2="BackgroundImageFix" result="effect1_dropShadow_30_86"/>
<feBlend mode="normal" in="SourceGraphic" in2="effect1_dropShadow_30_86" result="shape"/>
</filter>
</defs>
</svg>
