<svg width="582" height="551" viewBox="0 0 582 551" fill="none" xmlns="http://www.w3.org/2000/svg">
<path fill-rule="evenodd" clip-rule="evenodd" d="M295.52 17.7661C405.924 21.7147 496.456 103.447 530.502 214.583C564.45 325.401 541.475 455.441 448.976 518.692C366.645 574.991 272.674 504.924 191.943 446.09C100.604 379.525 -21.5444 309.472 5.93877 195.821C36.5235 69.3443 172.146 13.3535 295.52 17.7661Z" stroke="#60CDB2" stroke-width="3"/>
<path fill-rule="evenodd" clip-rule="evenodd" d="M245.534 3.85258C363.381 -6.4128 500.713 24.5275 537.36 133.275C574.056 242.169 478.208 339.698 380.579 404.59C292.554 463.099 175.336 493.815 91.8359 429.407C15.3778 370.431 48.198 262.344 80.4391 173.076C109.668 92.1478 157.211 11.5462 245.534 3.85258Z" stroke="#1E670B" stroke-width="3"/>
<path fill-rule="evenodd" clip-rule="evenodd" d="M309.23 67.7254C383.191 75.6382 440.288 124.76 488.146 181.772C538.185 241.381 595.651 310.248 576.075 385.608C556.831 459.686 469.549 481.56 401.306 516.06C330.312 551.951 260.323 608.229 184.744 583.442C100.225 555.723 40.783 477.296 19.4933 390.839C-2.24723 302.551 14.2749 205.229 74.9484 137.566C132.219 73.698 223.988 58.6058 309.23 67.7254Z" stroke="#A6C3AB" stroke-width="3"/>
</svg>
